<svg xmlns="http://www.w3.org/2000/svg" viewBox="0 0 72.62 62.89"><defs><style>.cls-1{fill:none;stroke:#000;stroke-miterlimit:10;stroke-width:0.28px;}</style></defs><g id="レイヤー_2" data-name="レイヤー 2"><g id="レイヤー_2-2" data-name="レイヤー 2"><polygon class="cls-1" points="26.81 62.74 30.7 48.25 24.56 44.71 13.95 55.32 18.24 62.74 26.81 62.74"/><polygon class="cls-1" points="58.67 55.32 48.06 44.71 41.92 48.25 45.8 62.74 54.38 62.74 58.67 55.32"/><polygon class="cls-1" points="68.16 24.02 53.67 27.9 53.67 34.99 68.16 38.87 72.45 31.44 68.16 24.02"/><polygon class="cls-1" points="45.8 0.14 41.92 14.64 48.06 18.18 58.67 7.57 54.38 0.14 45.8 0.14"/><polygon class="cls-1" points="13.95 7.57 24.56 18.18 30.7 14.64 26.81 0.14 18.24 0.14 13.95 7.57"/><polygon class="cls-1" points="4.45 38.87 18.95 34.99 18.95 27.9 4.45 24.02 0.16 31.44 4.45 38.87"/></g></g></svg>