<svg xmlns="http://www.w3.org/2000/svg" viewBox="0 0 30.52 136.35"><defs><style>.cls-1{fill:none;stroke:#000;stroke-miterlimit:10;stroke-width:0.28px;}</style></defs><g id="レイヤー_2" data-name="レイヤー 2"><g id="レイヤー_2-2" data-name="レイヤー 2"><path class="cls-1" d="M30.51.14s-14.8,1.31-24.09,17A41.61,41.61,0,0,0,2,28.49H9.25a5.67,5.67,0,0,1,0,11.34H.33a80.81,80.81,0,0,0,0,11.33h8.9a5.67,5.67,0,0,1,0,11.34H2A36.55,36.55,0,0,0,6.42,73.84H9.25a5.67,5.67,0,0,1,.38,11.32,28.29,28.29,0,0,0-4.06,32.62H9.25a5.67,5.67,0,0,1,5.67,5.67v12.76H30.51"/></g></g></svg>