<svg xmlns="http://www.w3.org/2000/svg" viewBox="0 0 28.49 134.93"><defs><style>.cls-1{fill:none;stroke:#000;stroke-miterlimit:10;stroke-width:0.28px;}</style></defs><g id="レイヤー_2" data-name="レイヤー 2"><g id="レイヤー_2-2" data-name="レイヤー 2"><path class="cls-1" d="M28.49,134.79a15.62,15.62,0,0,1-15-11.34H3.54A28.36,28.36,0,0,1,21.4,82.53V78.09H7.31a3.54,3.54,0,1,0,0-7.08H4A40.29,40.29,0,0,1,1.53,56.83h.65a3.54,3.54,0,0,0,0-7.08,49.24,49.24,0,0,1,5-14.18h4.34a3.54,3.54,0,0,0,0-7.08A72.26,72.26,0,0,1,24.94,14.31C24.94,7.23,26.72.14,28.49.14"/></g></g></svg>