<svg xmlns="http://www.w3.org/2000/svg" viewBox="0 0 29.2 136.35"><defs><style>.cls-1{fill:none;stroke:#000;stroke-miterlimit:10;stroke-width:0.28px;}</style></defs><g id="レイヤー_2" data-name="レイヤー 2"><g id="レイヤー_2-2" data-name="レイヤー 2"><path class="cls-1" d="M29.2.14c-1.77,0-3.55,7.09-3.55,14.17A72,72,0,0,0,12.22,28.49a3.54,3.54,0,0,1,0,7.08H7.86a49.24,49.24,0,0,0-5,14.18,3.54,3.54,0,0,1,0,7.08H2.24A40.29,40.29,0,0,0,4.72,71H8a3.54,3.54,0,1,1,0,7.08h7v3.69A29.06,29.06,0,0,0,29.2,136.21"/></g></g></svg>