<svg xmlns="http://www.w3.org/2000/svg" viewBox="0 0 28.49 120.76"><defs><style>.cls-1{fill:none;stroke:#000;stroke-miterlimit:10;stroke-width:0.28px;}</style></defs><g id="レイヤー_2" data-name="レイヤー 2"><g id="レイヤー_2-2" data-name="レイヤー 2"><path class="cls-1" d="M28.49,120.61H14.31v-7.08a14.18,14.18,0,0,1,0-28.35V78.09h-7a3.54,3.54,0,1,0,0-7.08H4A40.51,40.51,0,0,1,1.53,56.83h.65a3.54,3.54,0,0,0,0-7.08,49.24,49.24,0,0,1,5-14.18h4.34a3.54,3.54,0,0,0,0-7.08A72.26,72.26,0,0,1,24.94,14.31C24.94,7.23,26.72.14,28.49.14"/></g></g></svg>