<svg xmlns="http://www.w3.org/2000/svg" viewBox="0 0 234.27 208.52"><defs><style>.cls-1{fill:#d9d9d9;}.cls-1,.cls-2{stroke:#000;stroke-miterlimit:10;stroke-width:0.28px;}.cls-2{fill:none;}</style></defs><g id="レイヤー_2" data-name="レイヤー 2"><g id="レイヤー_2-2" data-name="レイヤー 2"><path class="cls-1" d="M39.78,145.31a14.52,14.52,0,0,1-15.1,21.57,20.91,20.91,0,1,0,16,27.74,14.52,14.52,0,0,1,26.23-2.29l7.69,13.31H90a13.82,13.82,0,0,0,10.59-22.7,21.62,21.62,0,1,1,33.11,0,13.82,13.82,0,0,0,10.59,22.7h15.38l7.68-13.31a14.53,14.53,0,0,1,26.24,2.29,20.9,20.9,0,1,0,16-27.74,14.52,14.52,0,0,1-15.1-21.57L202.18,132l-7.69-13.32a13.82,13.82,0,0,0-25,2.18A21.61,21.61,0,1,1,153,92.18a13.81,13.81,0,0,0,14.36-20.51l-7.68-13.32H144.28a14.52,14.52,0,0,1-11.13-23.86,20.91,20.91,0,1,0-32,0A14.53,14.53,0,0,1,90,58.35H74.62L66.93,71.67A13.83,13.83,0,0,0,81.3,92.19a21.61,21.61,0,1,1-16.56,28.67,13.82,13.82,0,0,0-25-2.18L32.1,132Z"/><line class="cls-2" x1="117.14" y1="132" x2="117.14" y2="58.35"/></g></g></svg>