<svg xmlns="http://www.w3.org/2000/svg" viewBox="0 0 28.49 134.93"><defs><style>.cls-1{fill:none;stroke:#000;stroke-miterlimit:10;stroke-width:0.28px;}</style></defs><g id="レイヤー_2" data-name="レイヤー 2"><g id="レイヤー_2-2" data-name="レイヤー 2"><path class="cls-1" d="M28.49.14c-1.77,0-3.55,7.09-3.55,14.17A72.26,72.26,0,0,0,11.51,28.49a3.54,3.54,0,0,1,0,7.08H7.15a49.24,49.24,0,0,0-5,14.18,3.54,3.54,0,0,1,0,7.08H1.53A37.36,37.36,0,0,0,4,71H8.6a3.54,3.54,0,1,1,0,7.08,21.72,21.72,0,0,0,9.26,5.61A28.36,28.36,0,0,0,3.54,123.45h9.94a15.62,15.62,0,0,0,15,11.34"/></g></g></svg>