<svg xmlns="http://www.w3.org/2000/svg" viewBox="0 0 67.06 61.66"><defs><style>.cls-1{fill:none;stroke:#000;stroke-miterlimit:10;stroke-width:0.28px;}</style></defs><g id="レイヤー_2" data-name="レイヤー 2"><g id="レイヤー_2-2" data-name="レイヤー 2"><path class="cls-1" d="M54.57,43a17.71,17.71,0,0,1,12.34-8.6h0V27.28h0A17.72,17.72,0,0,1,53.29,3.69h0L47.15.14h0A17.65,17.65,0,0,1,33.53,6.53,17.65,17.65,0,0,1,19.91.14h0L13.77,3.69h0a17.65,17.65,0,0,1-1.27,15A17.68,17.68,0,0,1,.14,27.28h0v7.09h0A17.71,17.71,0,0,1,12.49,43a17.68,17.68,0,0,1,1.27,15h0l6.13,3.54h0a17.71,17.71,0,0,1,27.24,0h0L53.29,58h0A17.71,17.71,0,0,1,54.57,43Z"/><line class="cls-1" x1="16.84" y1="30.83" x2="33.53" y2="30.83"/></g></g></svg>